<svg xmlns="http://www.w3.org/2000/svg" height="20" viewBox="0 -960 960 960" width="20"><path d="M480-427.077q-32.308 0-54.308-22.388-22-22.387-22-54.535v-237.538q0-32.308 22-54.308t54.308-22q32.308 0 54.308 22t22 54.308V-504q0 32.148-22 54.535-22 22.388-54.308 22.388Zm0-195.577Zm-14.269 453.731V-285.5q-87.07-6.72-145.939-68.907Q260.923-416.595 260.923-504h28.923q0 79.159 55.667 134.656 55.667 55.498 134.647 55.498 78.98 0 134.487-55.62 55.507-55.62 55.507-134.534h28.923q0 87.5-58.869 149.64-58.869 62.14-145.554 68.9v116.537h-28.923ZM480-456q20.138 0 33.762-13.8 13.623-13.8 13.623-34.2v-237.234q0-20.204-13.608-33.947-13.608-13.742-33.724-13.742-20.116 0-33.777 13.623-13.661 13.623-13.661 33.762V-504q0 20.4 13.623 34.2Q459.862-456 480-456Z"/></svg>